<?xml version="1.0" encoding="UTF-8" standalone="no"?>
<!-- Created with Inkscape (http://www.inkscape.org/) -->

<svg
   xmlns:dc="http://purl.org/dc/elements/1.1/"
   xmlns:cc="http://creativecommons.org/ns#"
   xmlns:rdf="http://www.w3.org/1999/02/22-rdf-syntax-ns#"
   xmlns:svg="http://www.w3.org/2000/svg"
   xmlns="http://www.w3.org/2000/svg"
   xmlns:sodipodi="http://sodipodi.sourceforge.net/DTD/sodipodi-0.dtd"
   xmlns:inkscape="http://www.inkscape.org/namespaces/inkscape"
   id="svg3004"
   version="1.1"
   inkscape:version="0.48.4 r9939"
   width="765"
   height="870"
   xml:space="preserve"
   sodipodi:docname="Price_Resume.pdf"><metadata
     id="metadata3010"><rdf:RDF><cc:Work
         rdf:about=""><dc:format>image/svg+xml</dc:format><dc:type
           rdf:resource="http://purl.org/dc/dcmitype/StillImage" /><dc:title></dc:title></cc:Work></rdf:RDF></metadata><defs
     id="defs3008" /><sodipodi:namedview
     pagecolor="#ffffff"
     bordercolor="#666666"
     borderopacity="1"
     objecttolerance="10"
     gridtolerance="10"
     guidetolerance="10"
     inkscape:pageopacity="0"
     inkscape:pageshadow="2"
     inkscape:window-width="1317"
     inkscape:window-height="744"
     id="namedview3006"
     showgrid="true"
     inkscape:zoom="1.3977011"
     inkscape:cx="404.66318"
     inkscape:cy="778.64563"
     inkscape:window-x="49"
     inkscape:window-y="24"
     inkscape:window-maximized="1"
     inkscape:current-layer="g3014"><inkscape:grid
       type="xygrid"
       id="grid4017" /></sodipodi:namedview><g
     id="g3012"
     inkscape:groupmode="layer"
     inkscape:label="myres"
     transform="matrix(1.25,0,0,-1.25,0,870)"><g
       id="g3014"><text
         transform="matrix(1,0,0,-0.83,43.01186,639.29799)"
         id="text3016"
         clip-path="none"
         mask="none"><tspan
           style="fill:#231f20;fill-opacity:1;fill-rule:nonzero;stroke:none;font-family:Roboto Condensed Light;font-variant:normal;font-weight:300;font-size:35;writing-mode:lr;-inkscape-font-specification:RobotoCondensed-Light"
           x="0 19.88 42.945 64.19 85.435 97.09 121.66 132.685 154.665 176.925 188.58 211.4"
           y="0"
           sodipodi:role="line"
           id="tspan3018">JUSTIN PRICE</tspan></text>
<text
         transform="scale(1.0910919,-0.91651309)"
         id="text3020"
         clip-path="none"
         mask="none"
         x="37.39373"
         y="-644.77777"
         style="font-size:10.9981575px"><tspan
           style="font-size:20.16337585px;font-variant:normal;font-weight:normal;writing-mode:lr-tb;fill:#3b3839;fill-opacity:1;fill-rule:nonzero;stroke:none;font-family:Roboto Condensed;-inkscape-font-specification:RobotoCondensed-Regular"
           x="37.39373 47.394764 58.484619 69.655113 79.656151 90.221756 95.262611 105.26363 117.74477 129.15727"
           y="-644.77777"
           sodipodi:role="line"
           id="tspan3022">EXPERIENCE</tspan></text>
<text
         transform="matrix(1,0,0,-1,421.68762,645.33008)"
         id="text3024"
         clip-path="none"
         mask="none"><tspan
           style="fill:#231f20;fill-opacity:1;fill-rule:nonzero;stroke:none;font-family:Roboto Condensed Light;font-variant:normal;font-weight:300;font-size:14;writing-mode:lr;-inkscape-font-specification:RobotoCondensed-Light"
           x="0 2.968 9.702 15.946 20.006 22.946 29.596 32.564 38.962 43.162 47.362 51.422 57.75 63.602 70.406 81.382 88.186 98.854 105.35 108.29 111.23 114.562 120.904 127.68"
           y="0"
           sodipodi:role="line"
           id="tspan3026">justinjeffreyp@gmail.com</tspan><tspan
           style="fill:#231f20;fill-opacity:1;fill-rule:nonzero;stroke:none;font-family:Roboto Condensed Light;font-variant:normal;font-weight:300;font-size:14;writing-mode:lr;-inkscape-font-specification:RobotoCondensed-Light"
           x="66.038028 77.014028 79.982028 86.716028 92.960028 97.020028 99.960028 106.610028 109.578028 116.382028 120.610028 123.452028 129.794028"
           y="16.799986"
           sodipodi:role="line"
           id="tspan3028">@justinjprice</tspan><tspan
           style="fill:#231f20;fill-opacity:1;fill-rule:nonzero;stroke:none;font-family:Roboto Condensed Light;font-variant:normal;font-weight:300;font-size:14;writing-mode:lr;-inkscape-font-specification:RobotoCondensed-Light"
           x="62.328 69.132 75.936 82.74 86.352 93.156 99.96 106.764 110.334 117.138 123.942 130.746"
           y="33.599972"
           sodipodi:role="line"
           id="tspan3030">480-622-2846</tspan></text>
<text
         transform="scale(1.0910919,-0.91651309)"
         id="text3032"
         clip-path="none"
         mask="none"
         x="44.725826"
         y="-292.46393"
         style="font-size:10.9981575px"><tspan
           style="font-size:20.16337585px;font-variant:normal;font-weight:normal;writing-mode:lr-tb;fill:#3b3839;fill-opacity:1;fill-rule:nonzero;stroke:none;font-family:Roboto Condensed;-inkscape-font-specification:RobotoCondensed-Regular"
           x="44.725826"
           y="-292.46393"
           sodipodi:role="line"
           id="tspan3036">EDUCATION</tspan></text>
<text
         transform="scale(1,-1)"
         id="text3038"
         clip-path="none"
         mask="none"
         x="69.599976"
         y="-480.23874"><tspan
           style="font-size:18px;font-variant:normal;font-weight:300;writing-mode:lr-tb;fill:#484546;fill-opacity:1;fill-rule:nonzero;stroke:none;font-family:Roboto Condensed Light;-inkscape-font-specification:RobotoCondensed-Light"
           x="69.599976"
           sodipodi:role="line"
           id="tspan3040"
           y="-480.23874">2013 - 2015</tspan></text>
<text
         transform="scale(1,-1)"
         id="text3042"
         clip-path="none"
         mask="none"
         x="168.80003"
         y="-269.53006"><tspan
           style="font-size:14px;font-variant:normal;font-weight:normal;writing-mode:lr-tb;fill:#231f20;fill-opacity:1;fill-rule:nonzero;stroke:none;font-family:Roboto Condensed;-inkscape-font-specification:RobotoCondensed-Regular"
           x="168.80003 176.86403 181.12003 184.32603 190.33203 197.34602 204.10803 210.81403 214.02003 221.27203 225.31804 232.02403 236.15402 242.70602 245.91203 253.76604 260.52802 263.73404 269.55804 276.11002 280.36603 286.73602 289.94202 294.07202"
           y="-269.53006"
           sodipodi:role="line"
           id="tspan3044">Arizona State University</tspan></text>
<text
         transform="scale(1,-1)"
         id="text3046"
         clip-path="none"
         mask="none"
         x="168.78603"
         y="-252.73006"><tspan
           style="font-size:14px;font-variant:normal;font-weight:300;writing-mode:lr-tb;fill:#231f20;fill-opacity:1;fill-rule:nonzero;stroke:none;font-family:Roboto Condensed Light;-inkscape-font-specification:RobotoCondensed-Light"
           x="168.78603 179.31403 185.89403 188.83403 192.89403 199.29204 203.52003 206.57204 214.48203 218.58403 225.44403 232.17802 238.24004 241.18002 245.24004 251.55403 254.69003 261.92804 268.27002 274.99002 281.76602 288.62604 291.56604 294.70203 301.47803 305.67804 308.81403 315.54803 322.40802 329.05804 333.28604 340.02002 346.60004 349.54004 352.48004 358.72403 369.39203 372.44403 379.02405 385.75803 392.57602 395.71204 406.08603 412.66605 418.91003 425.15405 428.29004 436.20004 442.97604 453.64404 464.31204 471.04605 477.78003 480.62204 486.96405 493.54404 497.60403 500.54404 507.40405"
           y="-252.73006"
           sodipodi:role="line"
           id="tspan3048">Walter Cronkite School of Journalism and Mass Communication</tspan><tspan
           style="font-size:14px;font-variant:normal;font-weight:300;writing-mode:lr-tb;fill:#231f20;fill-opacity:1;fill-rule:nonzero;stroke:none;font-family:Roboto Condensed Light;-inkscape-font-specification:RobotoCondensed-Light"
           sodipodi:role="line"
           x="168.78603"
           y="inf"
           id="tspan3135">Major: Print Journalism</tspan><tspan
           style="font-size:14px;font-variant:normal;font-weight:300;writing-mode:lr-tb;fill:#231f20;fill-opacity:1;fill-rule:nonzero;stroke:none;font-family:Roboto Condensed Light;-inkscape-font-specification:RobotoCondensed-Light"
           sodipodi:role="line"
           x="168.78603"
           y="0"
           id="tspan3139">Certificate: Computational Journalism</tspan><tspan
           style="font-size:14px;font-variant:normal;font-weight:300;writing-mode:lr-tb;fill:#231f20;fill-opacity:1;fill-rule:nonzero;stroke:none;font-family:Roboto Condensed Light;-inkscape-font-specification:RobotoCondensed-Light"
           sodipodi:role="line"
           x="168.78603"
           y="0"
           id="tspan3987">Graduation: May 2016</tspan><tspan
           style="font-size:14px;font-variant:normal;font-weight:300;writing-mode:lr-tb;fill:#231f20;fill-opacity:1;fill-rule:nonzero;stroke:none;font-family:Roboto Condensed Light;-inkscape-font-specification:RobotoCondensed-Light"
           x="168.78603 179.24403 185.82404 188.79204 195.56802 199.79604 202.61003 205.74603 213.29204 217.52003 220.46004 227.19403 231.25403 234.30603 241.04002 247.90002 254.63403 258.86203 265.51202 272.09204 275.03204 277.97202 284.21603"
           y="-235.93007"
           sodipodi:role="line"
           id="tspan3961" /><tspan
           style="font-size:14px;font-variant:normal;font-weight:300;writing-mode:lr-tb;fill:#231f20;fill-opacity:1;fill-rule:nonzero;stroke:none;font-family:Roboto Condensed Light;-inkscape-font-specification:RobotoCondensed-Light"
           sodipodi:role="line"
           id="tspan3052"
           x="168.78603"
           y="inf" /><tspan
           style="font-size:14px;font-variant:normal;font-weight:300;writing-mode:lr-tb;fill:#231f20;fill-opacity:1;fill-rule:nonzero;stroke:none;font-family:Roboto Condensed Light;-inkscape-font-specification:RobotoCondensed-Light"
           x="168.78603 177.08803 181.31602 187.89603 194.71404 201.44803 207.94403 212.00403 214.94403 221.80403 228.53802 231.35204 234.40402 244.86203 251.30203 257.15402 260.29004 267.09402 273.89804 280.70203"
           y="-219.13008"
           sodipodi:role="line"
           id="tspan3969" /></text>
<text
         transform="scale(1,-1)"
         id="text3054"
         clip-path="none"
         mask="none"
         x="168.78603"
         y="-172.22404"><tspan
           style="font-size:14px;font-variant:normal;font-weight:normal;writing-mode:lr-tb;fill:#231f20;fill-opacity:1;fill-rule:nonzero;stroke:none;font-family:Roboto Condensed;-inkscape-font-specification:RobotoCondensed-Regular"
           x="168.78603 176.20602 182.75803 189.12804 195.68002 202.38603 206.47403 212.92802 219.67603 222.88203 233.45203 239.92003 244.05003 250.79803 257.81204 264.75604"
           y="-172.22404"
           sodipodi:role="line"
           id="tspan3056">Research Methods</tspan></text>
<text
         transform="scale(1,-1)"
         id="text3058"
         clip-path="none"
         mask="none"
         x="168.3813"
         y="-155.82878"><tspan
           style="font-size:14px;font-variant:normal;font-weight:300;writing-mode:lr-tb;fill:#231f20;fill-opacity:1;fill-rule:nonzero;stroke:none;font-family:Roboto Condensed;-inkscape-font-specification:Roboto Condensed"
           x="168.3813"
           y="-155.82878"
           sodipodi:role="line"
           id="tspan3060">APIs, Python web-scraping, data-munging with Pandas and Numpy</tspan><tspan
           style="font-size:14px;font-variant:normal;font-weight:300;writing-mode:lr-tb;fill:#231f20;fill-opacity:1;fill-rule:nonzero;stroke:none;font-family:Roboto Condensed;-inkscape-font-specification:Roboto Condensed"
           x="168.36731 178.82532 181.7653 188.10732 192.13931 198.99931 205.24332 212.10332 216.30331 220.36331 223.41531 230.37331 236.25331 242.59531 248.99332 251.93332 251.90532 254.57932"
           sodipodi:role="line"
           id="tspan3062"
           y="-122.22885">Microsoft Excel , Adobe Illustrator</tspan><tspan
           style="font-size:14px;font-variant:normal;font-weight:300;writing-mode:lr-tb;fill:#231f20;fill-opacity:1;fill-rule:nonzero;stroke:none;font-family:Roboto Condensed;-inkscape-font-specification:Roboto Condensed"
           x="168.36731 175.91331 181.7653 185.82532 192.54532 199.40532"
           y="-88.628868"
           sodipodi:role="line"
           id="tspan3064">Python, Javascript, HTML, CSS, UNIX, R, Java</tspan></text>
<text
         transform="scale(1,-1)"
         id="text3066"
         clip-path="none"
         mask="none"
         x="168.77203"
         y="-71.424149"><tspan
           style="font-size:14px;font-variant:normal;font-weight:normal;writing-mode:lr-tb;fill:#231f20;fill-opacity:1;fill-rule:nonzero;stroke:none;font-family:Roboto Condensed;-inkscape-font-specification:RobotoCondensed-Regular"
           x="168.77203 179.34203 186.04803 192.95003 199.85204 203.05803 209.82004"
           y="-71.424149"
           sodipodi:role="line"
           id="tspan3068">Mapping</tspan></text>
<text
         transform="scale(1,-1)"
         id="text3070"
         clip-path="none"
         mask="none"
         x="168.77203"
         y="-49.824154"><tspan
           style="font-size:14px;font-variant:normal;font-weight:300;writing-mode:lr-tb;fill:#231f20;fill-opacity:1;fill-rule:nonzero;stroke:none;font-family:Roboto Condensed Light;-inkscape-font-specification:RobotoCondensed-Light"
           x="168.75803 176.66803 183.40202 189.25403 195.65202 199.88004 206.27803 213.01204 216.14803 222.49004 229.35004 240.01804 250.68604 257.42004 264.07004 267.01004 271.07004 276.16602 278.84003 281.97604 288.31802 292.54602 295.48602 306.15402 312.46802 315.60403 322.18402 328.91803 335.73602 338.78802 345.13004 351.99002 354.93002 361.66403 364.80002 371.14203 377.72202 383.96603 390.36401 396.52402 399.66003 403.86002 410.72003 414.94803 418.08401 425.28003 432.00003 438.39804 441.53403 449.20602 453.35004 456.29004 462.21204 469.07202 475.80603 482.38605 485.52203 493.12402 499.52203 506.32602 513.06 519.86401 522.80402 525.66003 532.00201 534.67603 537.81201 545.48401 553.03003 561.73804 569.22803"
           sodipodi:role="line"
           id="tspan3076"
           y="-462.42822">Covered community, crime and cold cases for The Arizona Republic, KPNX </tspan><tspan
           style="font-size:14px;font-variant:normal;font-weight:300;writing-mode:lr-tb;fill:#231f20;fill-opacity:1;fill-rule:nonzero;stroke:none;font-family:Roboto Condensed Light;-inkscape-font-specification:RobotoCondensed-Light"
           x="168.75803 175.56203 182.36603 185.50203 194.12604 200.52403 209.65204 215.81203 218.94803 225.52803 232.26204 239.08003 242.13203 248.71204 254.59203 260.93402 267.33203 274.06604 278.12604 282.35403 288.85004 291.79004 295.12204 301.46402 308.32404 318.90802 322.24002 325.37604 333.28604 340.14603 343.08603 345.94202 352.34003 358.68204 362.74203 369.14001 375.95804 379.01004 385.59003 392.32404 399.14203 402.19403 408.77402 415.50803 422.08801 425.02805 430.88004 436.80203 443.20004 450.01804 453.15402 459.45404 463.68204 466.62204 477.29004 483.68802 486.82404 493.64203 500.13803 504.19803 510.77805 513.914 518.11401 524.974 529.11804 532.25403 538.49805 542.55804 549.41803 553.646 556.586 562.90002 569.14404 572.47601"
           y="-445.62802"
           sodipodi:role="line"
           id="tspan3078">12 News and azcentral.com. Collected and analyzed crime data for stories. </tspan></text>
<text
         transform="scale(1,-1)"
         id="text3080"
         clip-path="none"
         mask="none"
         x="168.75803"
         y="-416.63403"><tspan
           style="font-size:14px;font-variant:normal;font-weight:normal;writing-mode:lr-tb;fill:#231f20;fill-opacity:1;fill-rule:nonzero;stroke:none;font-family:Roboto Condensed;-inkscape-font-specification:RobotoCondensed-Regular"
           x="168.75803 176.03802 182.78603 189.33803 192.54404 201.21004 207.91603 212.04604 215.25203 222.18204 228.94403 235.65002 238.85603 242.06203 248.82404 255.83803 262.51602 266.77203 273.53403 280.24002 283.44604 286.65204 293.02203 303.55005 306.75604 314.59604 321.14804 327.91003 332.04004 338.59204 342.84802 346.05405 352.55005 359.10202 362.30804 365.51404 372.52805 381.61404 387.90002 394.64804 397.85403"
           y="-416.63403"
           sodipodi:role="line"
           id="tspan3082">The National Journalism Center Fellowship</tspan></text>
<text
         transform="scale(1,-1)"
         id="text3084"
         clip-path="none"
         mask="none"
         x="168.77203"
         y="-399.83401"><tspan
           style="font-size:14px;font-variant:normal;font-weight:300;writing-mode:lr-tb;fill:#231f20;fill-opacity:1;fill-rule:nonzero;stroke:none;font-family:Roboto Condensed Light;-inkscape-font-specification:RobotoCondensed-Light"
           x="168.77203 176.33205 180.39204 184.45204 190.85004 197.58405 204.40204 210.71603 217.53404 220.67004 226.91403 233.31204 243.98004 246.83604 253.57004 260.15002 264.37805 270.62204 273.75803 280.25403 286.98804 293.80603 296.94205 299.88205 306.61603 312.41205 318.81003 325.05405 329.11404 332.05405 338.85803 345.43805 349.49805 352.43805 358.20605 364.60403 367.74005 371.82803 378.22604 385.03003 391.89005 396.28604 400.34604 403.28604 410.02005 416.82404 419.96005 429.08804 435.86404 440.09204 446.15402 452.39804 459.11804 465.89404 472.69803 478.94205 482.07803 485.01804 491.41605 498.15002 501.28604 508.00604 513.85803"
           y="-399.83401"
           sodipodi:role="line"
           id="tspan3086">Attended seminars and investigative reporting workshops led by </tspan><tspan
           style="font-size:14px;font-variant:normal;font-weight:300;writing-mode:lr-tb;fill:#231f20;fill-opacity:1;fill-rule:nonzero;stroke:none;font-family:Roboto Condensed Light;-inkscape-font-specification:RobotoCondensed-Light"
           x="168.75803 175.15604 181.16203 187.96603 194.36403 198.59203 201.44803 207.84604 214.58003 220.92203 227.32004 234.05403 237.19003 240.15804 247.01804 253.75203 257.89603 264.63004 271.21002 274.15002 277.09003 283.33401 287.39404 293.63803 296.88605 300.02203 310.59204 317.45203 321.68002 327.60202 334.00003 340.81802 343.95404 350.73004 357.46402 360.60004 367.18002 373.42404 379.66803 382.52405 389.32803 396.06204 406.73004 413.12802 419.86203 423.92203 427.05801 433.55402 437.61401 440.75003 448.03003 454.75003 461.06403 464.20001 474.72803 481.30801 487.55203 494.27203 497.21204 503.94601 510.66602 514.60004 521.46002 528.19403 531.33002 537.96606 542.06805 548.46606 554.86401"
           sodipodi:role="line"
           id="tspan3088"
           y="-383.03403">experienced journalists. Worked on assignment at The Washington Free </tspan><tspan
           style="font-size:14px;font-variant:normal;font-weight:300;writing-mode:lr-tb;fill:#231f20;fill-opacity:1;fill-rule:nonzero;stroke:none;font-family:Roboto Condensed Light;-inkscape-font-specification:RobotoCondensed-Light"
           x="168.75803 176.24803 182.64603 189.22603 195.56804 202.34402 209.07803"
           y="-366.23404"
           sodipodi:role="line"
           id="tspan3090">Beacon.</tspan><tspan
           style="font-size:14px;font-variant:normal;font-weight:300;writing-mode:lr-tb;fill:#231f20;fill-opacity:1;fill-rule:nonzero;stroke:none;font-family:Roboto Condensed Light;-inkscape-font-specification:RobotoCondensed-Light"
           x="168.73004 176.27605 179.21605 183.27605 189.61804 196.33804 202.65205 209.47005 212.60605 219.18605 225.92004 232.65405 235.79004 242.13205 248.86604 254.71805 261.11606 265.20404 271.60205 278.42004 281.55603 285.43405 292.29404 299.09805 302.03806 308.38004 314.62405 317.67606 321.79205 328.19006 331.13004 337.71005 341.77005 344.71005 351.36005 358.16406 361.30005 365.20605 372.06604 375.20206 383.18204 386.51404 393.75204 397.00006 400.13605 406.94006 413.80005 416.74005 419.59604 423.65604 426.59604 432.93805 439.18204 442.31805 448.89804 455.54803 462.36603 465.50204 472.30603 479.01205 484.82205 491.22003 495.44803 502.18204 512.85004 519.24805 525.98206 530.04205"
           y="-318.68799"
           sodipodi:role="line"
           id="tspan3092">Pitched and covered topics relating to U.S. politics and government </tspan><tspan
           style="font-size:14px;font-variant:normal;font-weight:300;writing-mode:lr-tb;fill:#231f20;fill-opacity:1;fill-rule:nonzero;stroke:none;font-family:Roboto Condensed Light;-inkscape-font-specification:RobotoCondensed-Light"
           x="168.71603 174.96004 181.76404 188.16203 194.89604 201.71404 204.57004 211.30405 218.10803 221.44003 224.57603 232.17804 238.57603 244.82004 251.21803 257.79803 261.88605 268.22803 274.94803 281.34604 288.08005 291.21603 297.79605 304.53003 311.34805 314.40005 320.74203 327.60205 338.27005 345.07404 348.01404 350.91205 357.31003 364.12805 367.26404 373.99805 380.57803 384.63803 391.21805 394.35403 398.55405 405.33005 409.55804 412.69403 418.86804 422.83005 429.69003 433.91803 436.85803 443.25604 449.50003"
           y="-301.88803"
           sodipodi:role="line"
           id="tspan3094">spending. Researched and compiled data for stories.</tspan></text>
<text
         transform="scale(1,-1)"
         id="text3096"
         clip-path="none"
         mask="none"
         x="118.39995"
         y="-336"><tspan
           style="font-size:18px;font-variant:normal;font-weight:300;writing-mode:lr-tb;fill:#484546;fill-opacity:1;fill-rule:nonzero;stroke:none;font-family:Roboto Condensed Light;-inkscape-font-specification:RobotoCondensed-Light"
           x="118.39995 127.14796 135.896 144.64404"
           y="-336"
           sodipodi:role="line"
           id="tspan3098">2014</tspan></text>
<text
         transform="scale(1,-1)"
         id="text3100"
         clip-path="none"
         mask="none"
         x="169.36003"
         y="-105.43609"><tspan
           style="font-size:14px;font-variant:normal;font-weight:normal;writing-mode:lr-tb;fill:#231f20;fill-opacity:1;fill-rule:nonzero;stroke:none;font-family:Roboto Condensed;-inkscape-font-specification:RobotoCondensed-Regular"
           x="169.36003 177.11603 181.37202 188.38603 195.27403 199.53003 206.23602 216.68002 227.20802 230.41403 237.17603"
           y="-105.43609"
           sodipodi:role="line"
           id="tspan3102">Programming</tspan><tspan
           style="font-size:14px;font-variant:normal;font-weight:normal;writing-mode:lr-tb;fill:#231f20;fill-opacity:1;fill-rule:nonzero;stroke:none;font-family:Roboto Condensed;-inkscape-font-specification:RobotoCondensed-Regular"
           x="168.80003 176.05203 183.06604 187.49004 191.62003 200.62204 207.32803 211.58403 218.13603 221.34203 229.09804 233.35403 240.36803 244.79202 247.99803 254.36803 257.57404 264.12604 270.88803 277.34204"
           y="-139.23203"
           sodipodi:role="line"
           id="tspan3104">Software Proficiency</tspan></text>
<text
         transform="scale(1,-1)"
         id="text3106"
         clip-path="none"
         mask="none"
         x="52.799995"
         y="-415.99991"><tspan
           style="font-size:18px;font-variant:normal;font-weight:300;writing-mode:lr-tb;fill:#484546;fill-opacity:1;fill-rule:nonzero;stroke:none;font-family:Roboto Condensed Light;-inkscape-font-specification:RobotoCondensed-Light"
           x="52.799995"
           y="-415.99991"
           sodipodi:role="line"
           id="tspan3108" /><tspan
           style="font-size:18px;font-variant:normal;font-weight:300;writing-mode:lr-tb;fill:#484546;fill-opacity:1;fill-rule:nonzero;stroke:none;font-family:Roboto Condensed Light;-inkscape-font-specification:RobotoCondensed-Light"
           x="53.003212 61.751213 70.499214 79.247215 87.995216 92.027214 96.671211 100.70322 109.45121 114.70722 122.93322 130.96123 139.18723 147.84523"
           y="-559.73792"
           sodipodi:role="line"
           id="tspan3110">2016 - present</tspan></text>
<text
         transform="scale(1,-1)"
         id="text3112"
         clip-path="none"
         mask="none"
         x="169.28535"
         y="-559.12158"><tspan
           style="font-size:14px;font-variant:normal;font-weight:normal;writing-mode:lr-tb;fill:#231f20;fill-opacity:1;fill-rule:nonzero;stroke:none;font-family:Roboto Condensed;-inkscape-font-specification:RobotoCondensed-Regular"
           x="169.28535 177.34935 181.60535 184.81136 190.84535 197.85934 204.62135 211.32735 214.53336 222.45735 229.00935 235.77135 239.90135 246.45335 250.70935 253.91534 258.33936 265.35336 269.60934 272.81534 276.31534 283.07736 288.97134 295.52335 301.89334 306.02335 309.22934 316.11734 322.82333 326.95334 330.11734 336.02536 342.57736 345.78336 353.20334 359.75534 366.65735 373.67136 378.30536 382.43533 385.64136 392.40335 399.29135 402.03534"
           y="-559.12158"
           sodipodi:role="line"
           id="tspan3114">Arizona Center for Investigative Reporting, </tspan></text>
<text
         transform="scale(1,-1)"
         id="text3116"
         clip-path="none"
         mask="none"
         x="405.24136"
         y="-559.12158"><tspan
           style="font-size:14px;font-variant:normal;font-weight:300;writing-mode:lr-tb;fill:#231f20;fill-opacity:1;fill-rule:nonzero;stroke:none;font-family:Roboto Condensed Light;-inkscape-font-specification:RobotoCondensed-Light"
           x="405.24136"
           sodipodi:role="line"
           id="tspan3118"
           y="-559.12158">Data Reporting Intern</tspan><tspan
           style="font-size:14px;font-variant:normal;font-weight:300;writing-mode:lr-tb;fill:#231f20;fill-opacity:1;fill-rule:nonzero;stroke:none;font-family:Roboto Condensed Light;-inkscape-font-specification:RobotoCondensed-Light"
           sodipodi:role="line"
           id="tspan3124"
           y="-541.62158"
           x="405.24136" /></text>
<text
         transform="scale(1,-1)"
         id="text3126"
         clip-path="none"
         mask="none"
         x="169.7982"
         y="-480.01999"><tspan
           style="font-size:14px;font-variant:normal;font-weight:normal;writing-mode:lr-tb;fill:#231f20;fill-opacity:1;fill-rule:nonzero;stroke:none;font-family:Roboto Condensed;-inkscape-font-specification:RobotoCondensed-Regular"
           x="169.7982 177.0782 183.8262 190.3782 193.5842 201.64819 205.90421 209.1102 215.1442 222.1582 228.9202 235.62621 238.8322 246.2522 252.8042 259.70621 266.51019 273.4122 276.61819 279.82419 286.2782 289.02219"
           y="-480.01999"
           sodipodi:role="line"
           id="tspan3128">The Arizona Republic, </tspan></text>
<text
         transform="scale(1,-1)"
         id="text3130"
         clip-path="none"
         mask="none"
         x="292.22821"
         y="-480.01999"><tspan
           style="font-size:14px;font-variant:normal;font-weight:300;writing-mode:lr-tb;fill:#231f20;fill-opacity:1;fill-rule:nonzero;stroke:none;font-family:Roboto Condensed Light;-inkscape-font-specification:RobotoCondensed-Light"
           x="292.22821 299.91422 306.31219 313.11621 319.9762 324.58221"
           y="-480.01999"
           sodipodi:role="line"
           id="tspan3132">Reporting Intern</tspan></text>
<text
         transform="scale(1,-1)"
         id="text3134"
         clip-path="none"
         mask="none"
         x="168.2466"
         y="-336.78827"><tspan
           style="font-size:14px;font-variant:normal;font-weight:normal;writing-mode:lr-tb;fill:#231f20;fill-opacity:1;fill-rule:nonzero;stroke:none;font-family:Roboto Condensed;-inkscape-font-specification:RobotoCondensed-Regular"
           x="168.2466 175.5266 182.2746 188.8266 192.03259 202.47659 209.1826 215.5526 222.3006 225.50659 232.2686 239.1566 243.11861 250.1326 256.89459 260.10059 266.65259 270.78259 277.33459 283.8866 287.09259 294.7226 301.2746 307.98059 314.4346 321.44861 328.2106 330.95459"
           y="-336.78827"
           sodipodi:role="line"
           id="tspan3136">The Washington Free Beacon, </tspan></text>
<text
         transform="scale(1,-1)"
         id="text3138"
         clip-path="none"
         mask="none"
         x="334.16061"
         y="-336.78827"><tspan
           style="font-size:14px;font-variant:normal;font-weight:300;writing-mode:lr-tb;fill:#231f20;fill-opacity:1;fill-rule:nonzero;stroke:none;font-family:Roboto Condensed Light;-inkscape-font-specification:RobotoCondensed-Light"
           x="334.16061 341.88861 348.28659 355.09061 361.95059 366.51459 370.57462 376.9726"
           y="-336.78827"
           sodipodi:role="line"
           id="tspan3140">Reporter</tspan></text>
<flowRoot
         xml:space="preserve"
         id="flowRoot3168"
         style="font-size:13.66565036999999982px;font-style:normal;font-variant:normal;font-weight:normal;font-stretch:normal;text-align:start;line-height:125%;letter-spacing:0px;word-spacing:0px;writing-mode:lr-tb;text-anchor:start;fill:#000000;fill-opacity:1;stroke:none;font-family:Roboto;-inkscape-font-specification:Roboto"
         transform="matrix(0.8,0,0,-0.8,0,696)"><flowRegion
           id="flowRegion3170"><rect
             id="rect3172"
             width="300.49341"
             height="25.756578"
             x="211.77632"
             y="795.5921" /></flowRegion><flowPara
           id="flowPara3174" /></flowRoot><flowRoot
         xml:space="preserve"
         id="flowRoot3177"
         style="font-size:13.66565037px;font-style:normal;font-variant:normal;font-weight:300;font-stretch:normal;text-align:start;line-height:125%;letter-spacing:0px;word-spacing:0px;writing-mode:lr;text-anchor:start;fill:#000000;fill-opacity:1;stroke:none;font-family:Roboto Condensed;-inkscape-font-specification:'Roboto Condensed, Light'"
         transform="matrix(0.8,0,0,-0.8,0,696)"><flowRegion
           id="flowRegion3179"><rect
             id="rect3181"
             width="309.10916"
             height="29.342606"
             x="212.98685"
             y="796.64349"
             style="-inkscape-font-specification:'Roboto Condensed, Light';font-family:Roboto Condensed;font-weight:300;font-style:normal;font-stretch:normal;font-variant:normal;font-size:13.66565037px;text-anchor:start;text-align:start;writing-mode:lr;line-height:125%" /></flowRegion><flowPara
           id="flowPara3183" /></flowRoot><flowRoot
         xml:space="preserve"
         id="flowRoot3185"
         style="font-size:13.66565037px;font-style:normal;font-variant:normal;font-weight:300;font-stretch:normal;text-align:start;line-height:125%;letter-spacing:0px;word-spacing:0px;writing-mode:lr-tb;text-anchor:start;fill:#000000;fill-opacity:1;stroke:none;font-family:Roboto Condensed;-inkscape-font-specification:'Roboto Condensed, Light'"
         transform="matrix(0.8,0,0,-0.8,-1.6,704)"><flowRegion
           id="flowRegion3187"><rect
             id="rect3189"
             width="310.02496"
             height="63.862427"
             x="211.97502"
             y="796.13757" /></flowRegion><flowPara
           id="flowPara3191"
           style="font-size:17.5px;fill:#231f20;fill-opacity:1">QGIS, Python spatial analytics and mapping</flowPara><flowPara
           style="font-size:17.5px;fill:#231f20;fill-opacity:1"
           id="flowPara3075">with Folium/leaflet.js</flowPara><flowPara
           style="font-size:17.5px;fill:#231f20;fill-opacity:1"
           id="flowPara3071" /><flowPara
           style="font-size:17.5px;fill:#231f20;fill-opacity:1"
           id="flowPara3073" /></flowRoot><text
         style="font-size:10.99815655px"
         y="-292.22766"
         x="82.12204"
         transform="scale(1.0910919,-0.91651309)"
         id="text3032-2"
         clip-path="none"
         mask="none"><tspan
           style="font-size:20.16337585px;font-variant:normal;font-weight:normal;writing-mode:lr-tb;fill:#3b3839;fill-opacity:1;fill-rule:nonzero;stroke:none;font-family:Roboto Condensed;-inkscape-font-specification:RobotoCondensed-Regular"
           x="82.12204 92.566673 103.53555 108.57639 118.15398 127.73159"
           y="-189.01143"
           sodipodi:role="line"
           id="tspan3036-8">SKILLS</tspan></text>
<text
         style="font-size:12px"
         id="text3096-5"
         clip-path="none"
         mask="none"
         x="118.39995"
         y="-336"
         transform="scale(1,-1)"><tspan
           style="font-size:18px;font-variant:normal;font-weight:300;writing-mode:lr-tb;fill:#484546;fill-opacity:1;fill-rule:nonzero;stroke:none;font-family:Roboto Condensed Light;-inkscape-font-specification:RobotoCondensed-Light"
           sodipodi:role="line"
           id="tspan3098-6"
           x="118.39995"
           y="-336" /></text>
<text
         style="font-size:12px"
         id="text3096-4"
         clip-path="none"
         mask="none"
         x="118.4"
         y="-416"
         transform="scale(1,-1)"><tspan
           style="font-size:18px;font-variant:normal;font-weight:300;writing-mode:lr-tb;fill:#484546;fill-opacity:1;fill-rule:nonzero;stroke:none;font-family:Roboto Condensed Light;-inkscape-font-specification:RobotoCondensed-Light"
           x="118.4"
           sodipodi:role="line"
           id="tspan3098-2"
           y="-416">2014</tspan></text>
<flowRoot
         xml:space="preserve"
         id="flowRoot3125"
         style="font-size:13.66565037px;font-style:normal;font-variant:normal;font-weight:300;font-stretch:normal;text-align:start;line-height:125%;letter-spacing:0px;word-spacing:0px;writing-mode:lr-tb;text-anchor:start;fill:#000000;fill-opacity:1;stroke:none;font-family:Roboto Condensed;-inkscape-font-specification:'Roboto Condensed, Light'"
         transform="matrix(0.8,0,0,-0.8,0,700.8)"><flowRegion
           id="flowRegion3127"><rect
             id="rect3129"
             width="508.93915"
             height="74.98851"
             x="211.06087"
             y="181.01149" /></flowRegion><flowPara
           id="flowPara3131"
           style="font-size:17.5px;fill:#231f20;fill-opacity:1">Collected and analyzed data to trace model legislation and influence to its source, used government and open-source APIs to automate data-gathering and wrote about sparsely reported lobbyist expenses. </flowPara></flowRoot></g></g></svg>